<?xml version="1.0" standalone="no"?>
<!DOCTYPE svg PUBLIC "-//W3C//DTD SVG 20010904//EN"
 "http://www.w3.org/TR/2001/REC-SVG-20010904/DTD/svg10.dtd">
<svg version="1.0" xmlns="http://www.w3.org/2000/svg"
 width="745.000000pt" height="745.000000pt" viewBox="0 0 745.000000 745.000000"
 preserveAspectRatio="xMidYMid meet">
<metadata>
Created by potrace 1.11, written by Peter Selinger 2001-2013
</metadata>
<g transform="translate(0.000000,745.000000) scale(0.100000,-0.100000)"
fill="#000000" stroke="none">
<path d="M3977 7103 c-4 -3 -7 -17 -7 -29 0 -13 -5 -26 -10 -29 -22 -14 -87
-6 -120 13 -60 37 -76 -5 -41 -106 10 -29 15 -55 10 -57 -4 -3 -50 0 -101 6
-174 22 -178 18 -83 -80 36 -38 63 -71 58 -74 -4 -3 -27 -8 -50 -12 -22 -3
-49 -13 -60 -20 -17 -12 -14 -15 32 -35 112 -48 137 -66 212 -152 30 -34 104
-68 149 -68 30 0 35 -3 29 -17 -4 -10 -10 -26 -12 -35 -5 -17 -29 -18 -319
-18 -277 0 -314 2 -314 15 0 9 -11 27 -25 41 -14 14 -25 26 -25 28 0 15 79 30
150 30 72 0 92 -3 123 -23 82 -50 88 11 9 92 -27 28 -76 62 -115 81 l-69 34
36 27 c43 32 80 90 72 110 -4 11 -21 15 -57 15 -38 0 -70 8 -113 30 -87 42
-175 62 -256 58 l-68 -3 -6 46 c-10 72 -49 89 -74 33 -7 -13 -29 -31 -49 -40
-165 -70 -203 -97 -244 -169 -45 -79 -74 -101 -173 -130 -48 -14 -101 -32
-116 -40 -40 -20 -40 -20 -40 25 0 77 -49 130 -120 130 -71 0 -120 -53 -120
-129 0 -31 7 -49 31 -75 l31 -36 -20 -27 c-54 -75 -124 -123 -179 -123 -42 0
-43 1 -43 33 0 50 -27 131 -51 153 -19 17 -22 17 -30 3 -21 -38 -102 -140
-130 -164 -27 -22 -39 -25 -115 -25 l-84 0 0 -97 c-1 -90 -3 -100 -26 -127
l-25 -29 -38 37 c-23 23 -49 38 -67 39 l-29 2 0 -75 c0 -57 -5 -84 -21 -115
-12 -22 -35 -66 -52 -97 -16 -31 -33 -80 -37 -107 -4 -28 -8 -51 -10 -51 -1 0
-19 7 -38 15 -65 27 -207 10 -207 -24 0 -6 16 -25 36 -43 38 -34 73 -98 74
-133 1 -70 52 -151 110 -175 24 -10 29 -17 24 -34 -11 -40 -57 -121 -91 -163
l-34 -43 -27 32 c-15 17 -36 50 -47 72 -39 80 -138 111 -212 66 -125 -76 -68
-270 80 -270 21 0 47 4 57 10 16 8 20 5 31 -27 17 -54 13 -145 -9 -190 -24
-51 -45 -83 -53 -83 -21 0 -68 61 -74 96 -21 125 -72 220 -147 274 -48 35 -58
36 -89 11 l-24 -19 28 -55 c37 -75 38 -181 2 -267 -14 -33 -25 -71 -25 -86 0
-21 -3 -25 -17 -19 -45 18 -48 14 -43 -60 4 -67 4 -153 0 -330 -1 -45 0 -87 2
-95 2 -10 -7 -13 -38 -11 -78 5 -174 -37 -174 -76 0 -9 25 -39 55 -67 41 -38
66 -74 100 -143 69 -142 130 -198 243 -224 l52 -12 0 -47 c0 -25 5 -72 11
-104 6 -32 8 -60 5 -63 -12 -13 -104 34 -134 69 -75 85 -197 66 -251 -39 -28
-54 -7 -130 49 -177 26 -22 42 -26 90 -26 49 0 64 4 90 27 30 25 33 25 64 11
70 -34 134 -110 156 -187 10 -35 -2 -40 -34 -16 -31 23 -142 57 -178 53 -31
-3 -33 -5 -31 -38 1 -19 20 -70 42 -113 23 -43 41 -83 41 -88 0 -12 -42 -11
-76 1 -15 6 -49 29 -76 51 -62 52 -78 44 -78 -41 0 -74 30 -170 91 -292 27
-54 49 -100 49 -103 0 -3 -13 -5 -28 -5 -18 0 -38 -11 -56 -29 -30 -32 -30
-61 1 -61 10 0 46 -13 81 -30 80 -37 165 -121 199 -196 28 -62 112 -151 180
-191 23 -13 43 -26 43 -28 0 -1 -7 -22 -15 -45 -20 -56 -19 -135 2 -196 21
-64 119 -162 182 -185 l45 -15 -42 -24 c-49 -28 -76 -63 -67 -89 6 -20 23 -28
116 -55 31 -9 76 -32 100 -51 63 -50 101 -47 73 6 -15 29 -115 89 -151 89 -10
1 -31 7 -48 14 l-30 14 58 27 c62 29 147 37 220 22 34 -7 38 -11 32 -30 -34
-109 -29 -191 15 -261 36 -57 98 -97 203 -132 51 -17 108 -46 156 -80 203
-143 364 -234 576 -323 324 -138 616 -215 980 -262 149 -19 561 -16 710 5 543
76 981 245 1445 556 142 95 144 96 205 105 87 13 160 61 203 134 23 39 27 57
27 122 0 62 -5 85 -27 127 l-27 52 77 0 c91 0 189 -19 226 -43 33 -22 27 -33
-21 -42 -90 -16 -183 -78 -183 -121 0 -24 30 -16 92 26 33 22 79 45 101 51 82
21 90 24 104 46 13 19 11 24 -18 57 -17 20 -42 39 -55 42 -30 8 -31 20 -3 29
35 12 153 131 179 182 31 60 34 160 7 212 -9 19 -16 35 -15 36 2 2 22 12 45
24 69 35 159 126 194 197 50 101 171 204 263 223 16 4 34 14 40 24 9 15 6 23
-17 43 -16 14 -41 24 -58 24 -16 0 -29 3 -29 8 0 4 23 52 50 107 62 122 90
210 90 280 0 98 -17 107 -87 45 -48 -42 -118 -69 -135 -52 -6 6 5 39 30 88 44
89 56 132 43 154 -14 20 -102 1 -184 -40 -33 -16 -62 -28 -64 -27 -2 2 4 23
12 47 20 57 70 122 119 154 l38 25 37 -24 c27 -19 49 -25 89 -25 107 0 167 54
167 150 0 92 -59 150 -152 150 -52 -1 -117 -32 -138 -67 -10 -17 -34 -36 -54
-44 -20 -8 -40 -16 -45 -18 -4 -2 -5 16 -1 40 4 23 10 74 14 113 l6 70 42 8
c106 18 182 86 247 220 45 94 80 140 130 173 68 45 -16 119 -133 118 l-57 -1
7 62 c3 33 2 86 -4 116 -5 32 -6 97 -2 155 13 180 15 170 -22 167 -30 -2 -33
1 -33 25 0 16 -11 52 -25 81 -36 78 -35 184 2 259 31 61 25 86 -21 91 -29 4
-91 -36 -126 -81 -33 -42 -68 -127 -80 -195 -9 -51 -17 -69 -43 -92 -29 -26
-34 -27 -49 -14 -45 41 -72 166 -54 249 6 30 7 30 76 30 73 0 103 14 142 66
51 68 22 171 -59 210 -42 20 -51 21 -102 11 -66 -14 -114 -57 -130 -120 -6
-22 -18 -46 -27 -53 -14 -12 -20 -9 -41 16 -28 35 -88 140 -97 171 -6 18 1 26
39 48 52 31 78 75 94 161 13 68 29 97 80 142 l36 33 -22 19 c-12 10 -39 22
-58 25 -39 8 -141 -9 -150 -25 -11 -17 -25 -9 -25 15 0 44 -40 153 -69 190
-36 45 -55 122 -47 187 l7 49 -32 0 c-24 0 -41 -10 -70 -40 l-38 -40 -16 22
c-11 17 -15 49 -15 125 l0 103 -155 0 -154 0 -47 46 c-26 25 -74 59 -106 75
-32 16 -83 52 -113 79 -61 55 -86 61 -109 28 -22 -31 -20 -57 8 -119 36 -81
40 -109 18 -109 -10 0 -28 14 -41 31 -14 18 -49 42 -87 60 -122 54 -192 116
-219 195 -10 31 -9 40 8 75 17 35 18 46 8 79 -17 56 -61 90 -118 90 -38 0 -50
-5 -80 -35 -32 -32 -35 -39 -31 -82 3 -27 8 -57 13 -67 8 -18 5 -19 -35 -12
-74 12 -147 53 -181 102 -57 83 -166 150 -267 165 -60 8 -169 57 -214 94 -31
26 -40 29 -51 18z m94 -92 c30 -16 87 -36 126 -44 102 -23 145 -48 243 -142
90 -87 113 -102 197 -129 28 -10 70 -31 93 -47 48 -35 74 -34 78 1 5 34 16 44
45 36 15 -3 30 -20 41 -45 25 -53 74 -99 182 -165 134 -82 135 -86 27 -86 -88
0 -89 0 -112 31 -31 41 -92 67 -174 73 -70 5 -117 25 -117 50 0 22 -55 63 -93
70 -64 12 -125 -10 -186 -66 -31 -28 -93 -75 -138 -105 l-81 -53 -86 0 -87 0
15 28 c8 15 23 36 35 46 31 29 26 36 -27 36 -104 0 -215 45 -282 116 -19 20
-57 47 -83 59 -51 24 -51 29 -1 39 26 6 42 0 93 -32 108 -71 308 -124 400
-107 35 6 36 6 13 -10 -28 -20 -52 -66 -52 -100 0 -14 2 -25 4 -25 3 0 35 23
71 50 80 60 109 76 158 85 48 9 43 28 -9 35 l-39 5 35 12 c19 7 52 15 73 19
43 7 44 13 16 71 -43 89 -153 159 -308 195 -94 23 -141 57 -141 103 0 32 5 31
71 -4z m-223 2 c7 -11 27 -18 66 -21 49 -4 59 -8 71 -31 l13 -27 -51 -12 c-43
-10 -54 -10 -75 4 -22 14 -52 69 -52 94 0 16 18 12 28 -7z m-883 -88 c0 -13
-23 -35 -69 -66 -76 -52 -144 -115 -133 -125 3 -3 23 7 44 23 157 124 376 153
515 68 31 -19 65 -35 77 -35 57 0 -9 -82 -76 -96 -25 -5 -33 -2 -42 15 -17 31
-81 60 -156 70 -83 12 -186 -11 -288 -64 -37 -19 -80 -35 -95 -35 -15 0 -33
-4 -41 -9 -9 -6 8 -11 52 -15 37 -3 96 -9 132 -12 36 -3 67 -9 70 -14 6 -10
-28 -17 -129 -24 -38 -3 -87 -14 -110 -25 -52 -25 -193 -53 -243 -49 -28 2
-38 -1 -38 -12 0 -11 15 -16 52 -20 50 -5 72 -14 61 -25 -2 -3 -56 -6 -119 -8
-102 -2 -120 -5 -171 -30 -32 -16 -58 -33 -58 -38 0 -5 -32 -9 -71 -9 l-71 0
44 33 c24 18 52 49 63 69 19 37 37 45 110 51 17 2 59 19 95 39 36 20 89 41
118 47 91 19 127 44 163 112 36 66 107 136 148 145 68 13 99 25 116 44 23 25
50 22 50 -5z m1236 -71 c24 -9 61 -29 82 -44 l38 -28 -90 6 c-106 6 -150 -1
-179 -29 -30 -27 -28 -41 4 -29 59 23 254 2 288 -31 6 -5 -17 -21 -55 -39
-156 -73 -315 -43 -539 102 -84 54 -118 84 -108 94 3 3 34 0 69 -6 55 -10 80
-9 174 9 127 24 246 22 316 -5z m665 8 c20 -13 36 -53 30 -77 -5 -19 -15 -23
-63 -29 -61 -7 -68 -4 -78 34 -9 38 27 80 68 80 18 0 37 -4 43 -8z m-1684
-131 c24 -10 49 -25 56 -34 16 -19 16 -19 -99 -92 -76 -49 -93 -55 -156 -61
-76 -7 -167 2 -158 16 3 4 38 13 78 20 39 6 84 16 99 21 35 14 74 57 62 69 -5
5 -47 10 -94 12 l-85 3 35 19 c87 48 189 59 262 27z m-943 -19 c33 -26 31 -79
-3 -109 -34 -29 -58 -29 -92 0 -75 65 19 171 95 109z m1216 -96 c27 -14 55
-34 62 -44 11 -18 6 -20 -86 -30 -53 -6 -117 -19 -141 -28 -48 -17 -153 -24
-183 -12 -15 7 -8 17 45 64 35 31 77 63 93 71 43 20 147 9 210 -21z m1136 -46
c27 -15 24 -27 -10 -35 -45 -10 -85 -58 -86 -105 l0 -40 -107 0 c-60 0 -108 2
-108 4 0 6 224 173 240 179 24 9 50 8 71 -3z m770 -35 c36 -8 135 -73 173
-114 l30 -31 -44 0 c-37 0 -49 6 -91 45 -28 26 -58 45 -71 45 -20 0 -19 -3 15
-38 20 -21 37 -41 37 -45 0 -4 -19 -7 -42 -7 l-43 0 -24 79 c-27 92 -24 124
10 92 12 -11 34 -23 50 -26z m-2581 -51 c14 -7 43 -31 65 -53 l39 -41 -70 0
c-69 0 -70 0 -72 28 -1 15 -11 39 -22 54 -11 15 -20 30 -20 33 0 8 50 -5 80
-21z m-940 -55 l0 -39 -55 0 -55 0 40 40 c22 22 40 45 40 51 0 8 5 8 15 -1 9
-7 15 -29 15 -51z m2813 31 c46 -48 34 -65 -43 -65 -63 0 -65 1 -68 27 -4 32
28 68 61 68 12 0 35 -13 50 -30z m-1978 -15 c43 -42 34 -55 -40 -55 -39 0 -65
4 -65 11 0 15 52 68 68 69 7 0 24 -11 37 -25z m490 11 c72 -5 82 -8 104 -33
l24 -28 -158 -3 -158 -3 -60 40 -61 40 115 -5 c63 -2 150 -6 194 -8z m1710
-15 c22 -10 46 -25 54 -34 12 -16 5 -17 -96 -17 l-110 0 5 26 c8 45 78 57 147
25z m-2377 -11 c15 0 22 -6 22 -20 0 -19 -7 -20 -115 -20 -63 0 -115 2 -115 5
0 16 129 46 165 39 11 -2 30 -4 43 -4z m-1018 -337 c-1 -24 -2 -26 -11 -10 -5
9 -7 22 -4 27 10 17 15 11 15 -17z m4558 5 c5 -7 26 -53 46 -101 20 -49 43
-98 50 -110 27 -43 46 -131 46 -217 0 -94 -15 -132 -49 -123 -15 4 -20 18 -26
71 -4 37 -16 94 -26 128 -21 67 -85 172 -125 203 -28 22 -30 50 -9 91 14 27
60 70 75 70 4 0 12 -6 18 -12z m-4618 -34 c57 -65 57 -79 2 -138 -26 -28 -57
-67 -69 -86 -31 -51 -60 -146 -68 -222 -7 -67 -19 -84 -50 -72 -21 8 -28 63
-23 164 5 79 10 98 57 198 28 61 51 114 51 119 0 18 41 73 54 73 8 0 28 -16
46 -36z m60 -276 l-1 -103 -69 -74 c-39 -41 -73 -72 -76 -69 -12 13 18 155 45
213 24 52 84 135 97 135 2 0 4 -46 4 -102z m4484 56 c19 -25 44 -70 55 -100
25 -66 45 -184 33 -196 -4 -4 -31 21 -60 57 -29 36 -57 65 -62 65 -6 0 -10 46
-10 110 0 61 2 110 5 110 2 0 20 -21 39 -46z m-4825 -110 c27 -16 30 -23 33
-81 2 -48 0 -62 -9 -58 -47 19 -48 18 -21 -13 29 -34 42 -80 36 -127 l-3 -28
-32 27 c-21 17 -37 43 -43 69 -29 111 -46 154 -74 179 -19 18 -27 32 -22 44 5
14 15 16 56 11 28 -3 63 -14 79 -23z m5251 12 c0 -8 -13 -28 -29 -44 -20 -19
-37 -54 -51 -103 -12 -41 -26 -87 -32 -102 -10 -27 -43 -57 -61 -57 -19 0 0
100 27 140 l27 41 -29 -15 -29 -15 4 57 c3 31 6 63 9 70 11 34 164 60 164 28z
m-4171 -101 c45 -12 89 -14 192 -9 159 8 170 3 192 -86 l14 -54 13 52 c20 87
34 93 219 90 143 -2 161 0 216 21 33 13 70 25 83 28 l22 5 0 -600 0 -601 -22
-7 c-13 -5 -106 -7 -209 -6 -141 2 -197 -1 -235 -13 -27 -8 -52 -15 -56 -15
-3 0 -10 30 -14 67 -4 37 -10 78 -14 92 -5 21 -8 16 -14 -29 -3 -30 -9 -74
-12 -96 l-6 -42 -31 17 c-26 13 -68 16 -232 17 -110 0 -215 4 -232 8 l-33 8 0
332 c0 183 3 455 7 603 l6 271 44 -19 c24 -10 70 -26 102 -34z m2160 0 c46
-12 89 -14 194 -8 l135 6 25 -26 c18 -17 28 -41 33 -77 8 -57 17 -51 29 17 4
29 15 50 33 64 25 20 35 21 157 15 138 -6 192 2 293 42 l52 22 0 -428 c0 -235
3 -504 7 -598 l6 -172 -24 -13 c-18 -10 -71 -13 -217 -11 -164 2 -200 0 -246
-16 l-54 -18 -7 79 c-7 75 -22 150 -24 117 -2 -28 -22 -184 -25 -187 -1 -1
-24 4 -51 13 -38 11 -93 14 -230 12 -99 -1 -195 1 -212 6 l-33 8 0 167 c0 92
3 364 7 603 l6 436 44 -19 c24 -10 70 -26 102 -34z m-1129 -45 c19 -38 20 -57
20 -590 0 -309 -4 -550 -9 -550 -29 0 -31 38 -38 604 -3 317 -3 576 0 576 4 0
16 -18 27 -40z m922 -537 c-4 -549 -7 -603 -32 -603 -4 0 -11 242 -15 538 -7
485 -6 541 9 576 14 33 34 66 40 66 1 0 0 -260 -2 -577z m1238 537 c19 -38 20
-57 20 -590 0 -309 -4 -550 -9 -550 -5 0 -13 6 -19 13 -11 13 -29 1167 -18
1167 3 0 15 -18 26 -40z m-3417 -1126 c-17 -12 -18 15 -26 526 l-9 538 24 48
23 49 3 -574 c2 -538 1 -574 -15 -587z m-73 1120 c-6 -15 -10 -264 -10 -638
l0 -613 167 -6 c91 -4 224 -7 295 -7 l128 0 0 -25 0 -25 -330 0 -330 0 0 108
c0 59 -4 113 -8 119 -5 7 -37 16 -73 19 -99 10 -111 17 -107 61 4 49 31 63
121 63 l67 0 0 305 c0 349 7 325 -99 325 -82 0 -91 5 -91 49 0 54 13 61 107
61 l83 0 0 115 0 115 45 0 c44 0 44 0 35 -26z m1482 -86 l3 -113 80 -3 c43 -2
85 -8 92 -14 16 -13 17 -70 1 -86 -7 -7 -41 -12 -83 -12 -42 0 -76 -5 -83 -12
-9 -9 -12 -93 -12 -315 l0 -303 68 0 c92 0 117 -14 117 -65 0 -44 0 -44 -125
-62 l-55 -8 -3 -117 -3 -118 -329 0 -330 0 0 23 0 24 287 7 c158 3 289 9 292
11 8 9 7 1229 -2 1253 -8 21 -6 22 37 22 l45 0 3 -112z m678 86 c-6 -15 -10
-264 -10 -638 l0 -613 167 -6 c91 -4 224 -7 295 -7 l128 0 0 -25 0 -25 -330 0
-329 0 -3 118 -3 117 -55 8 c-125 18 -125 18 -125 62 0 51 25 65 118 65 l67 0
0 305 c0 349 7 325 -99 325 -82 0 -91 5 -91 49 0 54 13 61 107 61 l83 0 0 115
0 115 45 0 c44 0 44 0 35 -26z m1480 -89 l0 -115 83 0 c92 0 107 -8 107 -55 0
-46 -15 -55 -95 -55 -42 0 -76 -5 -83 -12 -9 -9 -12 -93 -12 -315 l0 -303 68
0 c92 0 117 -14 117 -65 0 -44 0 -44 -125 -62 l-55 -8 -3 -117 -3 -118 -329 0
-330 0 0 23 0 24 287 7 c158 3 289 9 292 12 9 9 7 1227 -2 1252 -8 21 -6 22
37 22 l46 0 0 -115z m-4084 -61 c-3 -8 -15 -14 -26 -14 -27 0 -26 27 3 86 l22
47 3 -53 c2 -29 1 -59 -2 -66z m4484 7 c0 -17 -4 -22 -16 -17 -9 3 -18 6 -20
6 -2 0 -4 26 -3 58 l1 57 19 -40 c10 -22 19 -51 19 -64z m-4670 14 c0 -24 9
-30 38 -26 8 1 20 -3 28 -10 13 -10 13 -14 0 -28 -8 -9 -53 -80 -100 -159
-117 -197 -145 -274 -80 -223 15 12 41 21 59 21 28 0 32 -3 28 -20 -3 -10 -25
-29 -49 -41 -60 -29 -127 -98 -190 -195 -29 -45 -66 -91 -82 -103 l-30 -21
-11 33 c-10 31 -8 39 24 93 76 127 86 263 23 326 -21 21 -23 39 -6 56 22 22
47 13 62 -22 28 -68 49 -59 110 47 26 45 70 130 98 190 50 104 78 133 78 82z
m4908 -117 c125 -249 153 -278 189 -201 21 43 35 50 57 27 16 -15 16 -18 -2
-38 -22 -24 -42 -97 -42 -154 0 -58 26 -134 66 -194 34 -49 35 -55 24 -90
l-11 -38 -35 27 c-19 16 -51 57 -72 93 -48 83 -155 193 -203 209 -27 8 -38 19
-42 36 -4 22 -1 25 24 25 15 0 41 -12 58 -26 39 -32 49 -16 25 42 -18 42 -102
188 -171 297 -45 70 -44 73 7 79 17 2 26 10 28 26 7 46 30 18 100 -120z
m-4726 -14 c5 -3 8 -17 8 -30 0 -24 -2 -25 -32 -18 -18 5 -49 9 -70 9 -31 0
-35 2 -25 15 25 33 42 41 77 35 19 -4 38 -9 42 -11z m4553 -4 c10 -11 16 -22
14 -24 -2 -2 -30 -6 -61 -10 -56 -6 -58 -5 -58 17 0 32 7 37 50 37 24 0 43 -7
55 -20z m-5112 -52 l28 -29 -25 -20 c-18 -14 -26 -31 -28 -62 -3 -42 -3 -42
-44 -45 -56 -4 -93 27 -101 84 -4 33 -1 45 21 71 43 51 102 51 149 1z m5674
16 c77 -48 26 -192 -61 -170 -22 5 -26 12 -26 43 0 23 -8 45 -21 59 -26 28
-18 58 19 79 28 15 53 12 89 -11z m-490 -53 c17 -21 80 -131 89 -154 6 -17 3
-18 -42 -11 -27 4 -51 11 -52 16 -13 31 -121 50 -163 28 -18 -10 -19 -7 -19
49 0 67 6 73 77 90 47 11 94 4 110 -18z m-4649 -1 l42 -19 0 -61 0 -61 -30 16
c-52 27 -107 18 -156 -27 -16 -14 -33 -18 -64 -16 l-42 3 32 60 c17 33 43 75
56 93 22 28 31 32 72 32 26 0 66 -9 90 -20z m-787 -163 c53 -40 88 -106 96
-180 5 -50 3 -60 -30 -114 -19 -32 -45 -79 -58 -105 l-23 -48 -23 22 c-19 18
-23 32 -23 86 0 37 9 94 21 134 24 78 22 152 -6 190 -17 25 -20 48 -6 48 5 0
29 -15 52 -33z m6129 25 c0 -4 -9 -25 -20 -47 -25 -50 -25 -106 0 -187 25 -80
27 -184 3 -210 -9 -10 -19 -18 -23 -18 -4 0 -24 33 -45 73 -20 39 -45 80 -54
91 -25 28 -21 139 7 192 32 61 132 142 132 106z m-5335 -47 c44 -43 30 -114
-25 -133 -36 -13 -86 1 -100 28 -47 87 57 174 125 105z m4589 4 c34 -27 36
-82 4 -116 -47 -51 -138 -12 -138 58 0 69 77 103 134 58z m147 -131 c65 -36
159 -172 159 -229 l0 -31 -62 57 c-53 48 -184 135 -222 148 -16 5 46 75 68 76
10 1 36 -9 57 -21z m-4892 -20 l29 -33 -59 -32 c-73 -38 -120 -72 -180 -130
l-47 -45 8 40 c9 49 55 124 107 173 72 69 100 74 142 27z m201 -125 c0 -65 7
-185 15 -268 8 -82 15 -158 15 -167 0 -15 -9 -18 -55 -18 -30 0 -55 4 -55 9 0
5 14 38 31 74 52 113 25 153 -74 109 l-44 -20 -7 146 c-5 127 -4 150 11 181
17 33 22 36 70 41 29 3 58 11 65 18 6 6 16 12 20 12 4 0 8 -53 8 -117z m4480
89 c84 -8 93 -30 84 -219 -6 -126 -9 -143 -23 -137 -131 56 -160 32 -105 -86
50 -106 51 -99 -14 -93 -31 3 -58 6 -58 7 -1 0 5 44 12 96 7 52 16 175 20 273
6 158 9 177 23 171 9 -4 36 -9 61 -12z m212 -124 c26 -16 74 -58 107 -94 l60
-64 -14 -47 c-8 -27 -15 -50 -15 -51 0 -2 -26 32 -59 75 -60 80 -117 140 -125
132 -3 -3 18 -47 47 -99 80 -146 90 -171 78 -203 l-10 -27 -65 48 c-92 67
-101 95 -98 280 2 92 2 93 25 87 12 -4 43 -21 69 -37z m-4900 -70 c8 -170 -3
-195 -119 -279 l-43 -30 -11 24 c-13 29 10 88 88 220 25 43 43 81 39 84 -10
10 -60 -43 -123 -129 -33 -44 -61 -74 -66 -69 -5 5 -11 27 -14 50 -5 38 -2 45
41 95 49 58 156 136 186 136 15 0 18 -13 22 -102z m5350 62 c10 -14 29 -52 42
-84 l24 -59 -46 -69 -45 -69 -27 50 c-15 27 -37 62 -48 79 -26 36 -27 45 -6
105 16 48 47 80 73 75 8 -2 22 -14 33 -28z m-5806 -18 c30 -45 41 -108 21
-130 -8 -9 -31 -43 -50 -75 l-35 -58 -46 66 -46 66 26 61 c14 34 33 72 42 85
24 32 61 26 88 -15z m165 -69 c1 -5 2 -47 4 -94 3 -83 20 -146 49 -179 30 -34
28 -57 -7 -97 -50 -57 -98 -131 -125 -193 l-23 -55 5 95 c2 52 11 119 19 148
8 28 11 52 6 52 -19 0 -82 -216 -114 -395 -20 -117 -22 -120 -39 -106 -18 15
-36 140 -36 244 1 208 69 391 201 541 38 43 58 56 60 39z m5445 -35 c86 -91
146 -201 178 -328 24 -90 31 -250 17 -350 -14 -96 -19 -110 -36 -110 -8 0 -17
29 -25 78 -29 184 -97 422 -120 422 -5 0 -1 -21 7 -47 8 -27 16 -93 19 -148 4
-93 3 -98 -10 -65 -28 71 -66 136 -115 198 -28 34 -51 66 -51 70 0 5 13 29 30
54 31 47 56 166 44 214 -7 26 0 54 14 54 4 0 26 -19 48 -42z m424 2 c-15 -36
-8 -164 11 -219 28 -81 -18 -274 -94 -388 -47 -71 -116 -143 -104 -110 4 10 7
55 8 100 1 59 8 102 25 151 13 38 24 88 24 110 0 23 4 57 10 75 5 19 8 37 6
39 -6 5 -44 -70 -60 -116 l-12 -33 -17 76 c-18 76 -18 77 3 118 30 58 92 137
151 192 55 51 69 53 49 5z m-6263 -54 c43 -46 92 -107 107 -137 l28 -54 -19
-75 -19 -74 -23 62 c-28 74 -54 104 -40 45 5 -21 9 -57 9 -81 0 -23 10 -68 23
-100 17 -41 24 -80 25 -142 2 -47 5 -94 8 -105 3 -12 -17 3 -50 37 -65 68
-120 175 -141 273 -19 90 -19 128 1 212 15 67 15 169 -1 206 -16 37 16 14 92
-67z m828 -77 c4 -5 0 -18 -8 -27 -33 -36 -99 -194 -118 -279 -35 -162 -116
-291 -219 -347 l-53 -29 7 29 c24 98 109 277 188 399 l39 60 -58 -60 c-32 -34
-98 -112 -146 -175 -48 -63 -99 -128 -112 -145 l-24 -30 0 60 c-1 164 144 344
409 509 80 50 85 52 95 35z m4661 -61 c141 -92 275 -226 323 -320 25 -51 35
-84 39 -138 2 -38 1 -70 -4 -70 -5 1 -36 38 -69 83 -75 102 -246 309 -252 303
-2 -2 16 -35 40 -72 76 -118 191 -374 175 -390 -13 -12 -88 38 -136 90 -63 70
-97 140 -129 270 -26 102 -74 222 -112 275 -12 16 -21 32 -21 35 0 20 50 -3
146 -66z m-3806 -3 c151 -1 222 -5 238 -14 13 -7 21 -15 18 -19 -8 -7 -449 -3
-493 4 -29 5 -31 8 -22 26 7 14 16 17 27 12 9 -4 114 -8 232 -9z m917 -4 c10
-17 8 -19 -25 -25 -20 -3 -128 -6 -240 -6 -113 0 -211 -4 -222 -10 -13 -7 -21
-6 -30 5 -25 30 33 39 225 37 99 -1 198 2 220 7 59 13 59 13 72 -8z m1243 4
c151 -1 222 -5 238 -14 13 -7 21 -15 18 -18 -7 -7 -451 -4 -493 3 -29 5 -31 8
-22 26 7 14 16 17 27 12 9 -4 114 -8 232 -9z m917 -4 c10 -17 8 -19 -19 -25
-17 -3 -125 -6 -240 -6 -117 0 -217 -4 -228 -10 -13 -7 -21 -6 -30 5 -25 30
33 39 225 37 99 -1 198 2 220 7 59 13 59 13 72 -8z m-2698 -88 c24 -30 20 -58
-11 -85 -42 -36 -108 -7 -108 47 0 61 81 87 119 38z m2160 1 c12 -15 21 -33
21 -41 0 -23 -47 -63 -75 -63 -32 0 -65 33 -65 65 0 61 81 87 119 39z m1167
-58 c19 -27 116 -316 105 -316 -18 0 -209 221 -240 278 -9 16 -9 27 0 43 10
19 18 21 66 17 38 -3 60 -11 69 -22z m-4456 -3 c0 -25 -32 -73 -122 -185 -72
-89 -149 -161 -135 -127 3 8 26 78 52 157 26 78 54 149 62 157 10 10 36 15 79
15 54 0 64 -3 64 -17z m20 -78 c0 -22 58 -266 90 -376 163 -568 426 -1068 800
-1514 46 -55 77 -94 70 -87 -22 19 -58 14 -72 -10 -7 -14 -12 -66 -12 -135 -1
-62 -4 -113 -8 -113 -3 0 -19 11 -35 24 -40 33 -88 56 -118 56 -25 0 -26 -2
-19 -33 7 -33 8 -126 1 -133 -2 -3 -16 0 -31 6 -15 5 -52 10 -82 10 -67 0 -94
13 -94 44 0 30 22 49 58 48 44 -1 89 17 106 43 53 81 -36 217 -189 290 -55 25
-55 26 -55 70 l0 45 38 0 c45 0 99 26 125 61 50 69 22 174 -56 210 -54 24 -71
24 -123 -2 -49 -23 -90 -91 -81 -135 2 -14 -2 -39 -10 -56 l-15 -30 -18 40
c-13 29 -29 45 -65 62 l-47 23 7 176 c6 157 -5 394 -18 407 -7 7 -63 -22 -106
-55 l-33 -25 -29 32 c-37 41 -51 98 -47 186 3 68 2 71 -21 74 -30 5 -80 -42
-128 -120 -20 -32 -37 -58 -38 -58 -1 0 -19 27 -39 59 -44 72 -100 123 -129
119 -21 -3 -22 -8 -19 -76 4 -77 -12 -164 -33 -182 -16 -13 -29 30 -20 70 8
37 -10 82 -32 78 -15 -3 -18 6 -21 57 -5 103 43 186 132 226 36 16 42 16 70 2
38 -20 114 -13 149 13 40 30 61 73 61 126 0 79 -57 137 -144 146 l-51 5 64 38
c68 41 150 121 169 166 28 66 98 157 98 128z m4353 -94 c50 -92 111 -155 197
-204 l65 -37 -55 0 c-106 0 -170 -59 -170 -156 0 -42 5 -59 26 -84 51 -60 116
-75 193 -44 34 13 43 13 72 1 92 -38 138 -112 139 -219 0 -62 -2 -68 -20 -68
-26 0 -40 -35 -34 -86 6 -46 -10 -78 -26 -54 -22 33 -32 98 -27 171 4 42 4 79
1 82 -10 9 -66 -12 -89 -33 -12 -11 -37 -47 -56 -80 -36 -62 -53 -73 -64 -40
-10 30 -92 138 -115 150 -11 6 -29 8 -39 5 -17 -5 -19 -16 -17 -98 1 -77 -3
-99 -21 -133 -36 -67 -45 -70 -97 -30 -47 36 -83 52 -93 42 -14 -13 -23 -232
-18 -406 l6 -185 -52 -24 c-34 -16 -58 -35 -72 -59 -19 -32 -21 -33 -34 -16
-7 10 -13 43 -13 76 0 50 -4 62 -31 93 -56 64 -139 68 -206 10 -37 -32 -38
-35 -38 -98 0 -56 4 -69 25 -92 32 -34 56 -47 100 -54 27 -5 36 -12 38 -30 7
-49 -7 -70 -66 -100 -109 -55 -176 -154 -152 -225 14 -44 56 -86 86 -86 36 0
54 -10 69 -40 13 -25 12 -29 -4 -44 -10 -9 -33 -16 -52 -16 -19 0 -61 -7 -92
-15 -32 -8 -60 -15 -62 -15 -11 0 -16 96 -7 133 7 24 7 46 2 51 -12 12 -85
-18 -131 -54 -20 -16 -39 -27 -42 -24 -3 3 -3 36 0 73 6 73 -10 181 -29 192
-9 6 0 22 28 56 235 279 371 484 524 788 169 336 296 700 360 1030 18 95 19
98 37 84 8 -7 33 -47 56 -88z m-5452 53 c32 -6 38 -11 49 -48 22 -74 90 -192
145 -252 46 -49 55 -65 55 -95 l0 -37 -41 11 c-50 12 -149 100 -175 155 -37
79 -107 188 -137 214 -31 27 -31 28 -13 43 21 16 58 19 117 9z m6596 -9 c3
-10 -9 -29 -34 -53 -22 -20 -62 -77 -88 -127 -27 -49 -62 -107 -78 -128 -36
-46 -101 -92 -144 -101 -33 -8 -33 -7 -33 31 0 31 7 45 31 69 73 68 136 175
182 307 5 14 19 17 82 17 59 0 77 -3 82 -15z m-6154 -396 l14 -34 27 55 c17
37 24 45 20 25 -21 -105 -33 -186 -34 -229 0 -48 0 -49 20 -31 11 10 20 23 20
29 0 14 97 110 126 125 19 9 23 7 28 -13 3 -13 8 -30 11 -38 3 -8 -8 -21 -27
-32 -49 -28 -97 -76 -121 -121 -19 -34 -22 -57 -23 -150 0 -98 -3 -117 -27
-169 -15 -33 -30 -70 -33 -83 -13 -49 -34 -24 -51 61 -21 102 -102 209 -187
248 -23 10 -26 16 -21 37 4 14 8 27 10 29 4 4 83 -36 117 -59 14 -11 29 -19
32 -19 16 0 -13 244 -40 345 -4 16 -1 15 20 -7 42 -46 47 -40 72 75 8 38 15
85 15 105 1 20 5 3 10 -39 4 -42 14 -91 22 -110z m5642 7 c9 -33 18 -62 21
-65 3 -4 20 10 36 29 30 34 30 34 24 8 -35 -151 -57 -348 -39 -348 6 0 16 7
24 16 7 8 34 26 60 39 l47 24 5 -27 c5 -20 1 -31 -16 -42 -89 -61 -146 -144
-171 -248 -22 -97 -36 -106 -56 -39 -7 23 -23 63 -36 88 -21 42 -23 56 -17
132 9 134 -30 219 -125 274 -26 14 -48 27 -50 28 -2 2 19 67 24 73 12 16 119
-80 145 -130 32 -62 43 -49 35 43 -4 44 -13 110 -22 146 -8 36 -13 67 -11 69
2 2 11 -19 21 -46 10 -28 22 -50 27 -50 16 0 29 48 36 129 l7 76 8 -59 c4 -33
15 -86 23 -120z m-5206 28 c38 -32 49 -80 27 -122 -20 -38 -44 -52 -91 -52
-47 0 -71 14 -91 52 -33 64 18 148 91 148 21 0 45 -9 64 -26z m4824 2 c47 -43
48 -106 2 -152 -71 -71 -188 33 -141 124 30 57 94 70 139 28z m-5033 -30 c0
-8 -12 -19 -27 -25 -16 -6 -43 -20 -62 -31 -39 -25 -45 -22 -36 19 6 30 15 34
118 50 4 0 7 -5 7 -13z m5211 4 c34 0 37 -3 47 -40 8 -32 7 -40 -3 -40 -8 0
-17 5 -20 10 -4 6 -29 22 -56 35 -50 26 -68 52 -26 41 12 -3 38 -6 58 -6z
m-3086 -127 c65 -23 79 -24 201 -19 162 6 200 -2 220 -49 8 -19 14 -45 14 -59
0 -46 18 -36 25 13 4 33 15 56 32 73 24 22 29 23 176 20 138 -2 158 -1 222 21
39 13 77 27 86 31 15 7 17 -44 24 -589 6 -450 5 -599 -4 -608 -8 -8 -85 -14
-239 -17 -155 -3 -234 -9 -249 -17 -12 -7 -26 -13 -31 -13 -5 0 -12 39 -16 87
-4 48 -10 92 -14 98 -4 5 -12 -32 -18 -83 -7 -51 -14 -95 -17 -98 -3 -3 -16 0
-29 8 -16 9 -87 14 -250 18 -132 3 -231 9 -236 15 -6 6 -8 243 -4 608 4 544 6
597 21 591 9 -3 48 -17 86 -31z m-160 -606 c-7 -545 -9 -574 -26 -586 -18 -11
-19 5 -19 545 0 549 0 557 21 591 12 19 23 32 26 29 3 -2 2 -263 -2 -579z
m1244 536 l23 -48 -7 -543 c-7 -520 -9 -543 -25 -525 -17 17 -18 60 -22 591
-2 314 -1 572 2 572 3 0 16 -21 29 -47z m227 -199 c44 0 86 -4 92 -8 7 -4 12
-27 12 -50 0 -51 -9 -56 -106 -56 -33 0 -65 -5 -72 -12 -9 -9 -12 -93 -12
-315 l0 -303 76 0 c96 0 114 -9 114 -59 0 -35 -3 -40 -31 -50 -18 -6 -55 -11
-83 -11 -29 0 -57 -5 -64 -12 -8 -8 -12 -49 -12 -118 l0 -107 -232 -6 c-128
-4 -277 -7 -330 -7 -98 0 -98 0 -98 25 0 14 1 26 3 27 1 1 133 5 292 8 l290 5
3 610 c1 361 -2 621 -7 637 -9 26 -8 27 32 30 l42 3 5 -115 5 -115 81 -1z
m-1562 209 c-11 -23 -17 -818 -9 -1070 l7 -193 273 0 c150 0 280 -3 289 -6 9
-3 16 -17 16 -30 0 -24 -1 -24 -97 -24 -54 0 -203 3 -330 7 l-233 6 0 113 c0
125 1 124 -73 124 -23 0 -59 5 -79 11 -34 9 -38 13 -38 44 0 53 20 65 111 65
l79 0 0 303 c0 222 -3 306 -12 315 -7 7 -39 12 -76 12 -81 0 -102 11 -102 54
0 51 20 61 112 58 l78 -2 0 115 0 115 46 0 c41 0 45 -2 38 -17z m-2471 -24
c76 -39 77 -148 2 -184 -41 -19 -49 -19 -90 0 -36 18 -55 51 -55 98 1 70 80
118 143 86z m6420 -29 c36 -40 36 -87 1 -129 -35 -42 -84 -43 -125 -2 -41 42
-41 101 1 143 26 25 36 29 63 24 18 -3 44 -20 60 -36z m-5740 -248 c41 -76 51
-129 33 -180 -9 -23 -21 -80 -27 -126 l-12 -84 -27 32 c-16 17 -39 52 -53 78
l-24 46 18 83 c10 46 21 117 25 157 6 68 8 72 24 57 9 -8 29 -37 43 -63z
m5060 -163 c13 -64 13 -67 -9 -110 -13 -24 -36 -59 -52 -78 l-29 -34 -12 86
c-6 48 -18 105 -26 128 -21 59 1 141 58 213 l32 40 12 -89 c6 -50 18 -120 26
-156z m-288 180 c75 -69 121 -185 146 -365 l12 -83 -39 -48 -39 -48 -7 80
c-13 143 -40 237 -74 266 -16 13 -17 12 -9 -6 5 -11 10 -67 12 -125 l4 -105
-31 65 c-17 36 -42 79 -55 96 l-23 30 19 70 c11 38 19 100 19 141 0 43 4 73
10 73 6 0 31 -19 55 -41z m-4516 -36 c-1 -65 14 -148 33 -185 6 -12 -2 -33
-27 -73 -20 -31 -45 -75 -55 -98 l-19 -42 0 92 c-1 50 4 104 9 119 14 36 5 42
-16 9 -26 -39 -53 -150 -61 -242 -3 -46 -9 -83 -12 -82 -3 0 -21 19 -39 42
-32 39 -33 44 -27 101 18 172 70 312 141 383 63 62 74 58 73 -24z m4951 -130
c26 -69 50 -208 50 -288 0 -135 -50 -310 -98 -340 -15 -10 -39 -29 -54 -43
l-27 -25 20 53 c28 73 46 158 58 273 9 81 9 103 -4 133 -23 55 -39 38 -46 -47
-8 -88 -21 -122 -81 -211 -65 -94 -122 -278 -86 -278 9 0 21 21 31 53 22 67
78 169 96 175 22 7 5 -61 -39 -157 -55 -119 -41 -131 59 -51 141 113 290 172
436 173 50 0 98 -4 108 -9 16 -9 14 -13 -22 -37 -82 -55 -180 -158 -218 -229
-21 -41 -53 -83 -77 -102 -44 -36 -133 -86 -152 -86 -7 0 -123 105 -257 234
-245 233 -294 270 -370 283 -25 4 -37 12 -41 27 -8 29 -7 289 0 419 l7 106 27
-14 c103 -53 237 -345 256 -557 6 -70 30 -118 52 -104 7 4 12 24 12 45 0 94
55 213 142 308 70 78 120 176 138 273 7 36 17 76 22 90 9 24 10 24 24 5 8 -10
23 -43 34 -72z m-5386 55 c3 -13 6 -34 6 -48 0 -42 55 -183 90 -236 19 -27 53
-68 77 -92 67 -68 123 -202 123 -294 0 -31 4 -38 20 -38 26 0 35 25 48 131 27
214 141 455 250 527 12 8 25 12 28 9 8 -8 18 -459 10 -499 -6 -33 -10 -36 -49
-41 -24 -3 -52 -9 -62 -13 -17 -7 -18 -5 -8 7 9 11 11 36 7 80 -8 84 9 180 42
246 15 29 25 55 22 58 -3 3 -17 -4 -31 -16 -53 -41 -137 -258 -140 -358 -3
-84 31 -81 40 3 6 53 23 62 23 12 0 -19 4 -36 9 -38 10 -4 -505 -492 -524
-496 -22 -5 -114 46 -161 90 -24 22 -55 64 -68 92 -26 55 -195 228 -236 241
-54 17 1 35 109 35 132 0 277 -58 425 -170 44 -33 83 -60 87 -60 21 0 16 27
-20 102 -39 81 -62 168 -45 168 22 0 113 -179 114 -222 0 -10 5 -18 10 -18 47
0 -11 192 -90 302 -43 59 -70 139 -70 209 0 52 -2 60 -17 57 -10 -2 -24 -16
-31 -31 -23 -48 13 -295 59 -404 l18 -42 -47 35 c-26 19 -52 39 -59 44 -16 13
-50 124 -63 203 -20 124 -5 270 40 402 29 84 52 107 64 63z m-298 -64 c53 -30
147 -132 140 -151 -4 -8 -6 -31 -6 -51 l0 -36 -35 34 c-45 44 -53 34 -17 -21
35 -54 47 -86 62 -169 7 -35 22 -92 34 -125 l22 -61 -75 21 c-74 20 -77 22
-103 70 -15 28 -32 82 -38 120 -18 112 -59 265 -87 327 -33 74 -28 90 24 76
21 -5 57 -20 79 -34z m6040 32 c3 -7 -6 -40 -19 -72 -34 -80 -52 -147 -81
-292 -15 -76 -34 -139 -49 -164 -22 -37 -30 -42 -93 -58 -38 -10 -70 -17 -72
-16 -1 2 7 28 17 59 11 31 26 92 34 135 16 82 43 148 71 171 18 15 21 31 7 31
-5 0 -23 -11 -39 -25 l-30 -25 -4 47 c-3 38 1 53 23 83 36 49 100 98 157 121
57 22 71 23 78 5z m-6237 -223 c25 -13 59 -23 77 -23 36 0 38 -5 50 -110 7
-64 7 -65 -13 -47 -22 19 -43 22 -43 7 0 -18 31 -72 67 -120 l35 -45 -37 -3
c-30 -3 -44 2 -67 25 -41 38 -105 133 -133 197 -25 55 -47 155 -38 169 3 4 17
0 31 -10 15 -10 47 -28 71 -40z m6413 11 c-8 -86 -78 -223 -160 -312 -34 -36
-44 -42 -81 -42 l-41 0 41 53 c74 93 95 177 29 115 l-23 -22 7 73 c9 88 13
101 35 101 34 0 90 21 132 50 24 16 49 28 54 26 6 -1 8 -20 7 -42z m-4892
-279 c59 -30 68 -98 21 -146 -41 -40 -91 -40 -132 0 -44 45 -36 116 18 145 36
19 57 20 93 1z m3358 -10 c39 -32 48 -74 28 -114 -20 -37 -44 -51 -89 -51 -48
0 -87 40 -87 89 0 86 85 129 148 76z m-3649 -119 c25 -23 34 -76 21 -126 -12
-43 -33 -60 -78 -60 -35 0 -59 25 -68 69 -6 27 -4 33 15 38 29 7 27 21 -5 29
-32 8 -74 -28 -74 -64 0 -34 33 -84 70 -106 27 -15 41 -17 84 -10 28 4 87 8
131 9 68 0 89 -4 137 -28 76 -37 152 -107 172 -158 15 -38 15 -43 1 -65 -12
-19 -24 -24 -55 -24 -51 0 -83 -15 -103 -50 -41 -69 4 -130 96 -130 76 0 122
-16 203 -71 642 -433 1365 -554 2064 -344 212 63 471 184 638 297 131 88 157
100 231 108 72 6 105 20 121 50 17 32 11 64 -21 103 -24 29 -37 37 -64 37 -40
0 -75 37 -75 79 0 36 42 94 93 129 84 59 193 80 312 62 76 -11 77 -11 115 15
71 49 90 106 48 145 -23 21 -36 24 -62 14 -22 -8 -20 -21 4 -29 15 -5 20 -15
20 -44 0 -44 -14 -61 -51 -61 -33 0 -119 77 -119 107 0 29 38 73 76 89 91 38
162 4 331 -158 70 -67 183 -175 250 -239 140 -133 167 -172 167 -238 -1 -116
-141 -264 -249 -264 -81 0 -105 21 -323 297 -179 225 -210 260 -255 283 -97
49 -208 31 -281 -45 -22 -24 -27 -36 -22 -57 7 -28 25 -38 96 -55 38 -10 61
-27 140 -108 139 -142 386 -433 404 -477 20 -47 21 -147 2 -183 -30 -58 -121
-122 -172 -122 -51 0 -104 -24 -188 -84 -165 -118 -418 -259 -621 -346 -373
-160 -723 -237 -1125 -247 -397 -10 -735 39 -1110 164 -311 103 -661 277 -805
400 -40 35 -186 113 -210 113 -53 0 -161 75 -191 132 -14 28 -18 149 -6 180
10 24 362 430 448 515 43 44 83 74 100 78 89 18 106 57 47 112 -75 71 -160 90
-240 53 -34 -15 -85 -70 -268 -292 -124 -150 -238 -281 -253 -290 -32 -21 -97
-23 -156 -6 -61 18 -140 101 -160 168 -39 130 -40 128 292 440 176 166 298
274 317 280 47 14 141 7 164 -14z m157 -90 c-3 -11 -6 -33 -6 -48 0 -34 -16
-37 -22 -4 -8 42 2 85 19 79 9 -4 13 -13 9 -27z m3549 -31 c-3 -55 -3 -55 -19
-55 -21 0 -27 80 -8 103 21 23 30 6 27 -48z m-2110 -7 c173 2 275 -9 275 -29
0 -5 -6 -9 -12 -10 -30 -2 -255 4 -386 10 l-142 6 15 22 c14 20 19 21 43 11
17 -7 91 -11 207 -10z m925 -3 c7 -9 11 -17 9 -19 -3 -3 -427 -20 -508 -21 -8
0 -16 5 -18 12 -8 24 77 36 222 30 77 -2 165 -1 195 3 84 11 87 11 100 -5z
m1270 -37 c0 -5 -7 -8 -15 -8 -10 0 -15 10 -15 27 0 26 1 26 15 7 8 -10 15
-22 15 -26z m-1807 -50 c20 -23 21 -41 6 -69 -38 -71 -154 -17 -121 56 22 47
80 53 115 13z m-1751 -127 c59 -38 64 -47 27 -55 -57 -11 -120 -68 -280 -251
l-160 -184 -44 45 c-24 25 -44 48 -45 51 -4 8 289 360 327 393 47 42 110 42
175 1z m3533 0 c22 -10 50 -29 61 -42 38 -42 274 -343 273 -349 0 -3 -21 -20
-46 -38 -38 -28 -48 -31 -58 -20 -7 7 -50 56 -95 108 -187 214 -240 259 -322
274 -21 4 -38 11 -38 15 0 9 65 55 90 64 32 11 97 6 135 -12z m-2963 -119 c91
-116 108 -151 108 -231 0 -39 -4 -71 -9 -71 -17 0 -51 52 -65 101 -18 58 -34
89 -46 89 -16 0 -11 -45 9 -98 11 -26 22 -70 26 -98 3 -27 8 -59 11 -71 4 -20
0 -19 -62 15 -41 23 -70 46 -76 62 -13 33 -3 142 19 202 16 44 16 51 0 108
-10 34 -15 65 -12 71 10 15 49 -17 97 -79z m2328 79 c0 -5 -7 -38 -16 -72 -15
-58 -15 -68 -1 -109 23 -66 30 -124 22 -189 l-7 -58 -69 -37 -69 -37 5 28 c18
113 30 172 42 200 17 41 17 86 1 81 -7 -3 -19 -22 -26 -44 -26 -75 -45 -113
-62 -129 -16 -14 -17 -11 -23 51 -7 73 -2 87 65 186 64 96 138 164 138 129z
m-2191 -143 c-5 -10 -11 -18 -14 -18 -2 0 -20 28 -41 63 -20 34 -44 71 -53 82
-8 11 15 -9 51 -44 56 -54 65 -67 57 -83z m1994 22 c-16 -28 -33 -39 -33 -23
0 7 41 53 47 53 2 0 -4 -13 -14 -30z m362 -85 c-8 -22 -14 -59 -15 -82 0 -34
-5 -45 -29 -62 -39 -28 -48 -26 -54 12 -2 17 -9 47 -15 65 -10 31 -9 35 28 72
36 36 76 53 92 40 4 -3 1 -23 -7 -45z m-2680 3 l44 -43 -16 -50 c-9 -27 -18
-51 -19 -53 -1 -2 -17 7 -36 19 -28 18 -36 32 -45 73 -6 28 -14 61 -18 74 -6
19 -4 22 19 22 18 0 42 -14 71 -42z m408 -26 c36 -55 139 -183 198 -244 58
-60 79 -101 79 -153 0 -36 -1 -36 -32 -30 -53 12 -64 21 -77 67 -7 24 -27 70
-44 102 -57 108 -162 199 -112 98 10 -22 20 -69 23 -115 l5 -78 -39 16 c-21 8
-39 17 -41 19 -2 1 -13 40 -24 86 -15 58 -20 101 -16 139 5 55 33 131 49 131
4 0 18 -17 31 -38z m1853 -8 c21 -49 17 -165 -7 -255 -19 -70 -24 -79 -52 -88
-23 -9 -33 -8 -39 1 -13 20 2 138 23 187 11 24 18 46 16 48 -27 27 -155 -166
-172 -260 -8 -40 -20 -50 -72 -62 l-33 -7 0 42 c0 60 22 102 92 177 35 38 97
112 137 165 40 54 78 95 83 92 6 -4 16 -21 24 -40z m-1715 -70 c57 -48 139
-112 181 -143 70 -50 76 -57 61 -68 -10 -7 -25 -19 -33 -27 -14 -14 -30 0
-156 132 -123 128 -176 192 -160 192 2 0 51 -39 107 -86z m1530 -31 c-39 -43
-99 -109 -134 -147 l-63 -70 -27 20 c-14 10 -26 21 -27 24 0 3 31 27 68 53 37
26 108 81 157 121 50 41 92 75 94 75 2 1 -29 -34 -68 -76z m-2963 -79 c12 -8
29 -29 37 -45 15 -28 14 -32 -5 -59 -16 -23 -25 -28 -38 -21 -9 5 -43 12 -74
16 -32 4 -58 10 -58 13 0 12 92 112 104 112 6 0 22 -7 34 -16z m4447 -19 c14
-20 36 -44 48 -55 11 -11 19 -21 16 -24 -2 -2 -36 -6 -75 -10 l-72 -6 -25 33
c-24 31 -24 34 -9 54 42 52 81 54 117 8z m-3255 -56 c0 -27 -2 -29 -20 -19
-13 7 -20 21 -20 41 0 27 2 29 20 19 13 -7 20 -21 20 -41z m2040 37 c0 -27
-22 -75 -37 -80 -12 -5 -14 1 -8 36 7 40 18 57 38 58 4 0 7 -6 7 -14z m-1484
-192 c3 -30 5 -57 3 -59 -6 -5 -103 16 -112 25 -15 14 13 88 41 110 l27 21 17
-21 c9 -11 20 -45 24 -76z m956 85 c22 -12 48 -66 48 -102 0 -21 -7 -26 -44
-36 -25 -6 -50 -11 -55 -11 -16 0 -13 85 3 125 17 39 19 40 48 24z m-788 -93
c76 -47 143 -87 149 -89 7 -2 9 -7 6 -11 -10 -11 -241 22 -250 35 -4 6 -10 30
-13 51 -4 22 -13 53 -22 69 -8 16 -13 29 -11 29 2 0 66 -38 141 -84z m-498 47
c-7 -7 -26 7 -26 19 0 6 6 6 15 -2 9 -7 13 -15 11 -17z m1555 -16 c-17 -17
-24 -1 -9 22 11 18 14 19 16 5 2 -9 -1 -21 -7 -27z m-376 16 c-3 -10 -11 -42
-17 -71 -12 -60 -7 -57 -142 -72 -89 -9 -115 -6 -86 12 8 5 65 40 125 78 61
38 114 69 119 70 4 0 5 -8 1 -17z"/>
<path d="M2168 5364 c-57 -30 -86 -140 -54 -202 15 -29 86 -98 149 -146 87
-66 91 -171 9 -219 -28 -17 -36 -18 -64 -6 -24 10 -38 27 -60 76 -21 47 -33
63 -49 63 -18 0 -20 -5 -17 -81 l3 -81 110 -5 110 -5 43 32 c51 37 73 82 73
153 1 81 -11 100 -115 176 -95 71 -126 108 -126 155 0 38 10 56 43 72 27 15
32 15 56 -3 14 -10 39 -45 55 -76 40 -80 56 -76 56 16 l0 74 -64 11 c-83 16
-125 15 -158 -4z"/>
<path d="M2580 5351 c-6 -12 -15 -46 -21 -77 -18 -95 -108 -412 -129 -454 -11
-21 -20 -44 -20 -50 0 -5 22 -10 51 -10 45 0 50 2 43 18 -14 28 -8 109 10 136
14 23 24 26 69 26 65 0 80 -11 106 -76 20 -51 20 -52 1 -69 -11 -10 -17 -22
-14 -26 7 -12 141 -11 149 1 3 5 -1 23 -9 39 -9 16 -51 148 -95 293 -75 250
-80 263 -104 266 -18 2 -29 -3 -37 -17z m43 -214 c21 -76 27 -111 20 -136 -5
-18 -13 -21 -54 -21 -62 0 -66 10 -45 97 19 76 43 126 56 118 5 -3 15 -29 23
-58z"/>
<path d="M2764 5346 c-3 -7 -4 -40 -2 -72 3 -67 24 -80 46 -29 30 70 51 87 76
66 14 -12 16 -47 16 -259 0 -218 -2 -248 -17 -264 -26 -29 -1 -39 79 -36 78 4
92 13 60 37 l-23 17 3 247 c2 177 6 249 15 258 21 21 61 -6 86 -58 12 -27 27
-48 32 -48 6 0 11 35 13 78 l3 77 -191 0 c-152 0 -192 -3 -196 -14z"/>
<path d="M4497 5363 c-3 -5 -2 -26 3 -47 5 -21 10 -141 11 -267 3 -203 1 -230
-14 -247 -31 -34 -21 -42 49 -42 36 0 74 5 86 11 20 11 20 11 -3 35 -21 22
-22 29 -15 126 4 56 9 105 12 107 10 10 35 -29 96 -144 48 -91 69 -122 89
-129 30 -10 99 0 99 15 0 6 -13 27 -29 47 -38 48 -121 207 -121 231 0 11 15
28 35 40 41 24 65 72 65 130 0 55 -17 88 -59 114 -31 19 -53 22 -167 25 -74 3
-134 0 -137 -5z m214 -33 c45 -25 64 -122 34 -179 -16 -33 -77 -65 -104 -56
-11 3 -21 19 -25 37 -11 54 -7 183 6 196 15 15 63 16 89 2z"/>
<path d="M4951 5361 c-12 -8 -12 -13 2 -35 15 -22 17 -58 17 -269 0 -205 -2
-247 -15 -257 -8 -7 -15 -19 -15 -26 0 -11 34 -14 179 -14 170 0 180 1 186 20
6 18 1 82 -11 138 -7 33 -27 14 -43 -37 -16 -56 -52 -81 -113 -81 -43 0 -50 3
-58 26 -6 14 -10 61 -10 104 0 59 4 83 18 99 l17 22 38 -26 c20 -14 42 -23 47
-20 12 8 13 105 1 124 -7 11 -15 9 -43 -13 -41 -31 -42 -31 -62 -10 -12 12
-16 36 -16 100 0 100 10 124 49 124 64 0 111 -36 111 -85 0 -18 29 -47 41 -40
5 4 9 42 9 86 l0 79 -157 0 c-87 0 -164 -4 -172 -9z"/>
<path d="M4296 5351 c-3 -5 1 -22 9 -37 22 -42 21 -470 0 -498 -8 -11 -15 -28
-15 -38 0 -16 9 -18 76 -18 69 0 75 2 69 18 -18 41 -24 121 -24 325 -1 179 2
219 13 223 8 3 17 12 20 20 4 11 -9 14 -69 14 -40 0 -76 -4 -79 -9z"/>
<path d="M3448 3343 c-33 -5 -35 -14 -8 -38 22 -20 53 -98 140 -358 35 -104
70 -195 78 -203 8 -8 26 -14 41 -12 24 3 32 19 106 203 44 110 91 227 105 260
13 33 40 77 59 98 43 48 32 59 -56 54 -67 -3 -83 -11 -65 -29 22 -22 12 -77
-35 -206 -70 -191 -86 -202 -131 -84 -34 87 -82 237 -82 254 0 6 8 20 17 30
15 17 15 20 3 28 -15 10 -119 11 -172 3z"/>
<path d="M5750 2969 c0 -6 11 -29 25 -52 29 -51 50 -171 41 -248 -4 -39 -1
-62 8 -74 17 -24 36 -11 36 26 0 16 5 29 10 29 6 0 10 -15 10 -33 0 -18 7 -42
15 -53 13 -16 16 -17 25 -4 30 45 -59 319 -128 393 -27 28 -42 34 -42 16z"/>
<path d="M6466 2370 c-81 -52 -156 -129 -156 -161 0 -15 5 -31 11 -35 6 -3 45
29 87 73 43 44 96 93 119 110 71 51 17 62 -61 13z"/>
<path d="M845 2368 c17 -12 72 -63 124 -115 51 -51 97 -90 102 -87 5 3 9 17 9
32 0 20 -15 43 -57 84 -80 78 -128 108 -172 108 l-36 -1 30 -21z"/>
<path d="M2118 1721 c12 -12 22 -24 22 -27 0 -20 -238 -415 -272 -451 -15 -16
-28 -21 -47 -17 -23 5 -22 3 9 -17 19 -12 59 -37 87 -55 62 -40 75 -43 43 -10
-15 17 -20 31 -16 43 14 36 128 223 137 223 10 0 187 -107 207 -125 9 -8 -1
-32 -49 -110 -77 -127 -85 -136 -118 -129 -30 6 -30 6 78 -63 74 -48 95 -54
63 -20 -12 13 -22 30 -22 37 0 15 62 122 193 333 75 122 81 129 108 125 16 -3
29 -2 29 1 0 6 -141 91 -164 100 -6 2 -3 -5 7 -16 26 -30 22 -48 -34 -140 -36
-59 -56 -83 -66 -79 -8 3 -59 33 -114 67 l-99 61 21 37 c11 20 37 61 57 91 33
49 41 55 70 54 18 -1 32 -1 32 1 0 5 -146 94 -166 101 -17 6 -16 4 4 -15z"/>
<path d="M5050 1581 c-38 -12 -109 -50 -170 -91 -30 -20 -74 -47 -97 -60 -49
-27 -57 -44 -13 -27 19 7 33 8 39 2 14 -15 232 -363 261 -417 24 -46 24 -47 6
-67 -26 -28 -15 -26 41 8 27 15 78 44 115 64 82 45 151 120 168 182 39 139
-50 328 -185 391 -51 24 -116 30 -165 15z m82 -71 c58 -16 142 -100 183 -182
64 -129 38 -230 -77 -289 -76 -39 -76 -39 -237 219 -127 205 -126 196 -36 238
54 26 108 30 167 14z"/>
<path d="M2804 1382 c-5 -4 -90 -102 -187 -219 -211 -253 -214 -256 -249 -250
-48 6 -30 -7 46 -35 86 -33 96 -34 65 -9 l-23 19 27 38 c15 22 42 56 60 76
l32 36 70 -28 70 -28 -3 -94 c-2 -51 -8 -99 -14 -105 -7 -9 -4 -15 13 -22 13
-5 48 -19 78 -30 54 -22 81 -22 41 -1 -39 21 -41 47 -24 351 8 159 14 294 12
299 -2 5 -8 6 -14 2z m-69 -219 c-3 -43 -8 -92 -11 -110 l-5 -31 -53 21 c-29
12 -54 26 -55 30 -3 8 118 167 126 167 3 0 2 -35 -2 -77z"/>
<path d="M4420 1287 c-95 -35 -110 -43 -83 -45 17 -2 36 -9 42 -16 10 -11 126
-323 166 -444 16 -51 16 -54 -1 -73 -22 -25 -17 -24 74 8 78 26 122 51 70 39
-17 -4 -32 -1 -41 9 -16 15 -77 167 -77 190 0 8 15 17 34 21 32 5 42 0 123
-65 112 -90 137 -99 214 -76 33 10 59 22 59 27 0 5 -10 6 -23 3 -12 -4 -36 -1
-52 5 -23 9 -204 130 -238 160 -4 3 -1 26 8 49 30 85 15 171 -38 220 -44 40
-103 38 -237 -12z m150 -22 c34 -17 64 -64 80 -123 20 -79 -13 -132 -83 -132
-19 0 -28 17 -66 122 -42 116 -43 122 -26 135 24 17 59 17 95 -2z"/>
<path d="M3063 1265 c15 -9 27 -24 27 -34 0 -18 -69 -350 -91 -436 -19 -76
-30 -94 -57 -97 -17 -2 10 -12 71 -26 54 -13 101 -22 104 -19 2 3 -5 8 -16 12
-36 11 -39 34 -20 134 10 51 20 96 23 98 3 3 20 3 38 -1 32 -6 35 -10 62 -94
50 -152 72 -185 139 -202 23 -6 50 -13 60 -16 9 -3 17 -1 17 5 0 6 -6 11 -13
11 -32 0 -69 61 -127 209 l-37 94 53 51 c75 73 93 160 48 224 -27 39 -53 48
-279 97 l-30 6 28 -16z m180 -75 c14 -11 31 -37 38 -57 25 -77 -30 -203 -89
-203 -49 0 -72 11 -72 34 0 20 34 188 46 229 7 23 45 22 77 -3z"/>
<path d="M4051 1168 c-6 -29 -27 -150 -47 -268 -48 -285 -49 -287 -87 -311
l-32 -21 35 7 c19 3 59 9 88 12 28 3 52 10 52 15 0 5 -4 7 -9 4 -18 -11 -41 6
-41 31 0 13 5 55 11 93 13 76 9 73 111 85 l57 7 41 -82 c23 -45 39 -89 36 -97
-5 -13 3 -14 61 -8 36 4 76 11 87 15 19 8 19 9 -6 9 -16 1 -35 12 -50 29 -12
15 -81 141 -152 280 -71 139 -132 252 -137 252 -4 0 -12 -24 -18 -52z m105
-274 l13 -32 -61 -11 c-34 -6 -63 -9 -65 -7 -2 1 4 51 14 111 l16 108 35 -69
c19 -38 41 -83 48 -100z"/>
<path d="M3426 1176 c18 -8 35 -19 39 -26 4 -7 46 -138 94 -292 47 -154 91
-280 96 -280 11 0 36 57 135 302 100 249 116 280 141 280 47 0 11 8 -66 14
-71 6 -77 5 -55 -7 16 -8 24 -20 22 -33 -4 -21 -130 -371 -142 -394 -8 -13 -9
-13 -14 0 -22 59 -115 414 -110 421 3 5 12 9 20 9 8 0 14 5 14 10 0 6 -41 10
-102 10 -96 -1 -101 -2 -72 -14z"/>
<path d="M1323 1513 c-19 -7 -15 -33 5 -33 36 0 61 12 55 26 -5 14 -36 17 -60
7z"/>
<path d="M6000 1506 c-9 -12 -6 -16 24 -21 43 -8 62 1 45 21 -15 18 -53 18
-69 0z"/>
</g>
</svg>
